<svg width="93" height="93" viewBox="0 0 93 93" fill="none" xmlns="http://www.w3.org/2000/svg">
<path d="M45.5042 93.0083L51.2777 83.0083H39.7306L45.5042 93.0083ZM46.5042 10L51.2777 0H39.7306L44.5042 10H46.5042ZM45.5042 84.0083H46.5042L46.5042 9H45.5042H44.5042L44.5042 84.0083H45.5042Z" fill="#174396"/>
<path d="M10 44.5042L0 39.7306L0 51.2777L10 46.5042V44.5042ZM93.0083 45.5042L83.0083 39.7306V51.2777L93.0083 45.5042ZM9 45.5042V46.5042H84.0083V45.5042V44.5042H9V45.5042Z" fill="#174396"/>
<path d="M19.2777 70.9022L8.83121 74.5979L16.9962 82.7629L20.6919 72.3165L19.2777 70.9022ZM78.6805 12.9136L67.5269 15.9022L75.6919 24.0672L78.6805 12.9136ZM19.2777 72.3165L19.9848 73.0236L73.0236 19.9847L72.3165 19.2776L71.6094 18.5705L18.5706 71.6094L19.2777 72.3165Z" fill="#174396"/>
<path d="M22.1061 19.2776L18.4104 8.83112L10.2454 16.9961L20.6918 20.6918L22.1061 19.2776ZM80.0947 78.6804L77.1061 67.5269L68.9411 75.6918L80.0947 78.6804ZM20.6918 19.2776L19.9847 19.9847L73.0236 73.0235L73.7307 72.3164L74.4378 71.6093L21.3989 18.5705L20.6918 19.2776Z" fill="#174396"/>
</svg>
